<?xml version="1.0" encoding="iso-8859-1"?>
<!-- Uploaded to: SVG Repo, www.svgrepo.com, Generator: SVG Repo Mixer Tools -->
<svg height="800px" width="800px" version="1.1" id="Layer_1" xmlns="http://www.w3.org/2000/svg" xmlns:xlink="http://www.w3.org/1999/xlink" 
	 viewBox="0 0 496.158 496.158" xml:space="preserve">
<path style="fill:#EDC92F;" d="M248.075,0C111.07,0,0,111.062,0,248.083c0,137.005,111.07,248.075,248.075,248.075
	c137.013,0,248.083-111.07,248.083-248.075C496.158,111.062,385.088,0,248.075,0z"/>
<g>
	<path style="fill:#BC9042;" d="M340.237,398.84c-5.168-0.715-21.728,10.015-16.973-15.343c0,0,40.654-96.794,35.903-160.171
		l-1.587-30.104l-53.867-49.116l-33.269,41.729c0,0-211.253,12.669-181.681,188.011c0,0,21.127,69.715,101.404,33.804
		c0,0,84.817-33.429,105.947-50.325c0,0-6.518,50.711,20.951,65.496c0,0,29.401,10.569,37.858-2.111
		C354.926,420.709,363.739,402.103,340.237,398.84z"/>
	<path style="fill:#BC9042;" d="M154.502,394.598l-12.73,23.502c0,0,42.38,1.056,50.563,5.348
		c14.069,7.383,51.683,2.004,51.683,2.004c10.37-0.987,15.477-6.763,15.756-13.717C260.752,387.253,154.502,394.598,154.502,394.598
		z"/>
	<path style="fill:#BC9042;" d="M100.78,338.428c-13.419-7.654-28.64-6.243-33.995,3.152c-5.355,9.387,1.182,23.204,14.594,30.854
		c13.423,7.65,28.632,6.239,33.994-3.152C120.725,359.895,114.191,346.078,100.78,338.428z"/>
</g>
<path style="fill:#B58841;" d="M346.277,118.988c-0.379-0.681-23.182-41.343-23.556-42.021
	c-15.037-27.178-31.812-50.719-38.257-44.277c-17.94,17.944,31.064,111.988,40.257,110.328
	C334.874,141.183,355.871,136.378,346.277,118.988z"/>
<g>
	<path style="fill:#BC9042;" d="M326.691,125.353c-0.489-2.448-24.573-39.01-24.971-39.66
		c-16.647-27.419-33.127-50.256-39.794-44.052c-18.579,17.294,27.018,113.036,36.274,111.705
		C308.419,151.87,330.586,144.831,326.691,125.353z"/>
	<path style="fill:#BC9042;" d="M369.34,124.133c-14.839-30.047-50.972-19.344-64.364-10.845
		c-24.072,15.286-31.19,44.06-11.636,69.934c19.539,25.874,56.904,49.621,86.187,27.924
		C397.604,197.75,382.999,151.793,369.34,124.133z"/>
</g>
<path style="fill:#A87D3D;" d="M387.934,188.704c0,0-1.714,0.119-4.285,0.734c-3.06,0.734-8.813,5.141-8.813,5.141
	s2.08,3.427,4.039,5.508c1.958,2.081,5.753,5.141,5.753,5.141C390.998,200.917,387.934,188.704,387.934,188.704z"/>
<path style="fill:#353535;" d="M332.464,143.986c-4.716,0-8.53,3.623-8.53,8.094s3.814,8.09,8.53,8.09c4.721,0,8.53-3.619,8.53-8.09
	S337.184,143.986,332.464,143.986z"/>
<g>
	<path style="fill:#A87D3D;" d="M359.046,219.39c0,0-37.419,9.383-56.024-19.995c0,0,8.224,29.034,56.208,23.116L359.046,219.39z"/>
	<path style="fill:#A87D3D;" d="M173.108,285.245c0,0,92.54,27.909,48.474,109.188C221.582,394.433,280.827,312.175,173.108,285.245
		z"/>
</g>
</svg>