<?xml version="1.0" ?>
<!-- Uploaded to: SVG Repo, www.svgrepo.com, Generator: SVG Repo Mixer Tools -->
<svg width="800px" height="800px" viewBox="0 0 512 512" baseProfile="tiny" overflow="visible" version="1.1" xml:space="preserve" xmlns="http://www.w3.org/2000/svg" xmlns:xlink="http://www.w3.org/1999/xlink">
<g id="Layer_1"/>
<g id="Layer_2"/>
<g id="Layer_3">
<g>
<circle cx="256" cy="256" fill="#ADC0ED" r="248.5"/>
<circle cx="256" cy="256" fill="#85A4E4" r="151.367"/>
<path d="M260.337,7.538c-3.351-0.058-6.682-0.031-10.002,0.043c132.492,7.564,236.467,118.536,234.131,252.407    c-2.337,133.871-110.121,241.147-242.797,244.082c3.316,0.189,6.644,0.333,9.995,0.392    c137.222,2.395,250.404-106.903,252.799-244.125C506.857,123.115,397.559,9.933,260.337,7.538z" fill="#99B2E9"/>
<path d="M258.642,104.656c-3.361-0.059-6.694,0.005-10.004,0.163c78.832,6.526,140.11,73.25,138.71,153.474    c-1.4,80.224-64.969,144.768-143.981,148.54c3.302,0.273,6.632,0.453,9.993,0.512c83.585,1.459,152.527-65.117,153.986-148.702    C408.803,175.057,342.227,106.115,258.642,104.656z" fill="#7293DF"/>
<path d="M126.185,345.501l42.319-65.889l-34.484-21.966l-42.319,65.889c0,0,0,0,0,0    c-15.77-5.514-34.991,5.819-33.139,28.663c0,0.003,0.001,0.006,0.002,0.008c5.13,13.985,16.299,19.832,26.79,19.039    c3.676,9.817,13.691,17.464,28.591,16.236c0.003,0,0.006-0.001,0.009-0.002C135.553,379.575,137.824,357.446,126.185,345.501    C126.185,345.501,126.185,345.501,126.185,345.501z" fill="#F2C7AE"/>
<path d="M308.958,163.864c26.884-41.858,19.954-94.088-15.48-116.659s-85.953-6.936-112.837,34.922    c-11.039,17.187-16.375,36.122-16.378,54.035c-0.006,33.897-9.595,65.23-26.793,92.007l-11.725,18.255    c-1.496,2.33-0.814,5.432,1.521,6.919l48.025,30.591c2.323,1.48,5.405,0.802,6.893-1.515l11.745-18.286    c17.198-26.777,41.741-48.585,72.639-62.804C282.895,193.816,297.919,181.051,308.958,163.864z" fill="#D97C41"/>
<path d="M376.43,157.805l-42.319,65.889l34.484,21.966l42.319-65.889c0,0,0,0,0,0    c15.77,5.514,34.991-5.819,33.139-28.663c0-0.003-0.001-0.006-0.002-0.008c-5.13-13.985-16.299-19.832-26.789-19.039    c-3.677-9.817-13.691-17.464-28.591-16.236c-0.003,0-0.006,0.001-0.009,0.002C367.062,123.732,364.791,145.86,376.43,157.805    C376.43,157.805,376.43,157.805,376.43,157.805z" fill="#F2C7AE"/>
<g>
<path d="M126.185,345.501l42.319-65.889l-34.484-21.966l-2.823,4.396l27.309,17.396l-42.319,65.889l0,0     c11.507,11.809,9.405,33.562-11.514,41.694c2.838,0.544,5.925,0.737,9.273,0.461c0.003,0,0.006-0.001,0.009-0.002     C135.553,379.574,137.824,357.446,126.185,345.501L126.185,345.501z" fill="#EFB899"/>
</g>
<g>
<path d="M400.916,179.597L400.916,179.597L361.42,241.09l7.175,4.57l41.565-64.715     C407.067,181.084,403.928,180.65,400.916,179.597z" fill="#EFB899"/>
<path d="M444.053,151.108c0-0.003-0.001-0.006-0.002-0.009c-5.13-13.985-16.299-19.832-26.789-19.039     c-3.677-9.817-13.691-17.464-28.591-16.236c-0.003,0-0.006,0.001-0.009,0.002c-0.246,0.09-0.476,0.191-0.717,0.285     c9.793,1.878,16.468,8.163,19.319,15.774c10.49-0.793,21.659,5.055,26.789,19.039c0.001,0.003,0.002,0.006,0.002,0.009     c1.366,16.839-8.722,27.413-20.434,29.605C428.792,183.959,445.801,172.661,444.053,151.108z" fill="#EFB899"/>
</g>
<path d="M193.657,339.442c-26.884,41.858-19.954,94.088,15.48,116.659s85.953,6.936,112.837-34.922    c11.039-17.187,16.375-36.122,16.378-54.035c0.006-33.897,9.595-65.23,26.793-92.007l11.725-18.255    c1.496-2.33,0.814-5.432-1.521-6.919l-48.025-30.591c-2.323-1.48-5.405-0.802-6.893,1.515l-11.745,18.286    c-17.198,26.777-41.741,48.585-72.639,62.804C219.72,309.491,204.696,322.255,193.657,339.442z" fill="#D97C41"/>
<path d="M293.478,47.206c-13.519-8.612-29.235-11.645-44.996-9.799c8.784,1.407,17.252,4.515,24.999,9.45    c35.434,22.571,42.364,74.801,15.48,116.659c-11.039,17.187-26.063,29.952-42.39,37.465    c-30.898,14.219-55.44,36.027-72.639,62.804l-8.79,13.686l10.149,6.465c2.323,1.48,5.405,0.802,6.893-1.515l11.745-18.286    c17.198-26.777,41.741-48.585,72.639-62.804c16.328-7.514,31.351-20.278,42.39-37.465    C335.842,122.006,328.912,69.776,293.478,47.206z" fill="#C76D33"/>
<path d="M375.35,249.962l-48.025-30.591c-2.323-1.48-5.405-0.802-6.893,1.515l-2.955,4.6l37.876,24.127    c2.335,1.488,3.017,4.589,1.521,6.919l-11.725,18.255c-17.198,26.777-26.788,58.11-26.793,92.007    c-0.003,17.912-5.339,36.847-16.378,54.035c-16.627,25.887-42.294,41.729-67.842,44.721c31.395,5.03,66.832-11.666,87.839-44.372    c11.039-17.187,16.375-36.122,16.378-54.035c0.006-33.897,9.595-65.23,26.793-92.007l11.725-18.255    C378.367,254.552,377.685,251.45,375.35,249.962z" fill="#C76D33"/>
</g>
</g>
<g id="Layer_4"/>
<g id="Layer_5"/>
<g id="Layer_6"/>
<g id="Layer_7"/>
<g id="Layer_8"/>
<g id="Layer_9"/>
<g id="Layer_10"/>
<g id="Layer_11"/>
<g id="Layer_12"/>
<g id="Layer_13"/>
<g id="Layer_14"/>
<g id="Layer_15"/>
<g id="Layer_16"/>
<g id="Layer_17"/>
<g id="Layer_18"/>
<g id="Layer_19"/>
<g id="Layer_20"/>
<g id="Layer_21"/>
<g id="Layer_22"/>
<g id="Layer_23"/>
<g id="Layer_24"/>
<g id="Layer_25"/>
<g id="Layer_26"/>
<g id="Layer_27"/>
<g id="Layer_28"/>
<g id="Layer_29"/>
<g id="Layer_30"/>
<g id="Layer_31"/>
<g id="Layer_32"/>
<g id="Layer_33"/>
<g id="Layer_34"/>
<g id="Layer_35"/>
<g id="Layer_36"/>
<g id="Layer_37"/>
<g id="Layer_38"/>
<g id="Layer_39"/>
<g id="Layer_40"/>
<g id="Layer_41"/>
<g id="Layer_42"/>
<g id="Layer_43"/>
<g id="Layer_44"/>
<g id="Layer_45"/>
<g id="Layer_46"/>
<g id="Layer_47"/>
<g id="Layer_48"/>
<g id="Layer_49"/>
<g id="Layer_50">
<g>
<g>
<path d="M255.995,512c-68.38,0-132.667-26.629-181.02-74.98C26.624,388.668-0.005,324.38-0.005,256s26.629-132.668,74.98-181.02     C123.327,26.629,187.615,0,255.995,0s132.668,26.629,181.02,74.98s74.98,112.64,74.98,181.02s-26.629,132.668-74.98,181.02     S324.374,512,255.995,512z M255.995,15c-132.888,0-241,108.112-241,241s108.112,241,241,241s241-108.112,241-241     S388.882,15,255.995,15z"/>
</g>
<g>
<path d="M372.468,166.81c-2.152,0-4.289-0.922-5.772-2.706c-12.992-15.635-29.49-28.6-47.711-37.493     c-3.723-1.817-5.267-6.308-3.45-10.03c1.818-3.721,6.306-5.266,10.03-3.45c20.115,9.819,38.327,24.13,52.668,41.386     c2.647,3.187,2.211,7.915-0.975,10.562C375.857,166.242,374.158,166.81,372.468,166.81z"/>
</g>
<g>
<path d="M179.888,394.381c-1.283,0-2.582-0.329-3.77-1.021c-20.079-11.704-37.691-28.013-50.932-47.164     c-2.356-3.407-1.503-8.079,1.904-10.435c3.407-2.354,8.078-1.504,10.434,1.903c11.999,17.354,27.957,32.133,46.148,42.736     c3.579,2.086,4.789,6.678,2.703,10.257C184.98,393.048,182.468,394.381,179.888,394.381z"/>
</g>
<g>
<path d="M110.504,305.405c-3.514,0-6.464-2.413-7.277-5.675c-4.05-14.161-6.103-28.871-6.103-43.73     c0-48.881,22.018-94.329,60.408-124.692c3.248-2.569,7.965-2.02,10.535,1.23c2.57,3.249,2.019,7.965-1.23,10.535     c-34.771,27.5-54.712,68.66-54.712,112.927c0,13.54,1.88,26.94,5.587,39.827c0.194,0.674,0.292,1.372,0.292,2.073     C118.004,302.043,114.646,305.405,110.504,305.405z"/>
</g>
<g>
<path d="M339.021,390.101c-2.44,0-4.834-1.189-6.274-3.382c-2.275-3.461-1.313-8.111,2.148-10.387     c40.682-26.738,64.97-71.723,64.97-120.332c0-18.831-3.581-37.138-10.643-54.412c-1.567-3.834,0.271-8.213,4.104-9.78     c3.834-1.566,8.213,0.271,9.78,4.104c7.802,19.084,11.758,39.301,11.758,60.088c0,53.676-26.815,103.346-71.731,132.867     C341.864,389.701,340.434,390.101,339.021,390.101z"/>
</g>
<g>
<g>
<path d="M112.551,397.629c-12.83,0-23.711-5.775-29.786-15.897c-12.874-0.906-23.697-9.23-29.148-22.523      c-0.496-1.211-0.797-2.479-0.897-3.774c-0.932-11.885,2.93-22.371,10.875-29.521c6.959-6.263,16.464-9.191,25.724-7.993      l35.745-57.85c3.608-5.842,11.308-7.675,17.164-4.089l26.336,16.138c2.854,1.748,4.854,4.505,5.629,7.762      c0.776,3.257,0.234,6.619-1.526,9.467l-35.708,57.79c5.223,7.688,6.884,17.445,4.43,26.434      c-2.815,10.313-10.475,18.49-21.568,23.024c-1.193,0.489-2.457,0.79-3.749,0.892      C114.883,397.582,113.709,397.629,112.551,397.629z M67.646,353.879c3.417,8.035,9.596,12.743,17.002,12.929      c4.421,0.112,8.471,2.599,10.571,6.49c3.504,6.491,10.511,9.853,19.283,9.265c6.485-2.751,10.884-7.334,12.416-12.941      c1.38-5.057,0.306-10.575-2.875-14.762c-3.178-4.184-3.463-9.749-0.726-14.181l0-0.001l35.27-57.08l-22.072-13.524      l-35.314,57.152c-2.729,4.416-7.786,6.653-12.885,5.716c-5.249-0.976-10.737,0.566-14.687,4.121      C69.309,340.95,67.192,346.91,67.646,353.879z M114.886,382.534c-0.002,0-0.004,0-0.006,0      C114.882,382.534,114.884,382.534,114.886,382.534z M136.078,348.562L136.078,348.562c0.001-0.002,0.003-0.005,0.004-0.007      L136.078,348.562z"/>
</g>
<g>
<path d="M178.37,293.569c-2.225,0-4.474-0.591-6.502-1.834l-48.553-29.75c-2.854-1.748-4.854-4.505-5.629-7.762      c-0.776-3.257-0.234-6.619,1.526-9.467l11.404-18.457c16.287-26.358,24.608-56.923,24.065-88.388      c-0.348-20.109,5.376-40.299,16.551-58.385c28.274-45.759,83.23-63.405,122.508-39.34      c17.014,10.425,29.104,27.593,34.046,48.343c6.073,25.503,0.945,54.066-14.07,78.366      c-11.172,18.081-26.684,32.264-44.856,41.015c-28.46,13.704-52.114,34.883-68.405,61.247l-11.424,18.488      C186.672,291.464,182.566,293.569,178.37,293.569z M133.291,250.507l44.288,27.137l10.115-16.37      c17.798-28.804,43.614-51.93,74.658-66.878c15.59-7.507,28.939-19.742,38.604-35.384l6.38,3.942l-6.38-3.942      c12.934-20.933,17.395-45.354,12.238-67.006c-4.011-16.842-13.703-30.702-27.29-39.027      c-32.254-19.762-77.97-4.313-101.912,34.434c-9.662,15.637-14.612,33.01-14.314,50.24c0.593,34.345-8.502,67.725-26.302,96.532      L133.291,250.507z"/>
</g>
</g>
<g>
<g>
<path d="M366.732,249.325c-2.227,0-4.478-0.593-6.507-1.838l-26.334-16.134c-2.856-1.752-4.854-4.509-5.63-7.765      s-0.233-6.617,1.525-9.464l35.709-57.791c-5.224-7.688-6.884-17.445-4.43-26.435c2.815-10.313,10.475-18.49,21.567-23.023      c1.19-0.487,2.448-0.788,3.735-0.891c14.364-1.159,26.697,4.718,33.32,15.755c12.873,0.906,23.697,9.23,29.148,22.523      c0.492,1.205,0.793,2.468,0.896,3.759c0.933,11.899-2.929,22.386-10.874,29.535c-6.958,6.263-16.462,9.191-25.724,7.993      l-35.746,57.851C375.033,247.219,370.927,249.325,366.732,249.325z M343.867,219.874l22.072,13.523l35.314-57.151      c2.729-4.418,7.79-6.661,12.889-5.715c5.243,0.975,10.733-0.567,14.684-4.123c4.319-3.887,6.437-9.846,5.982-16.813      c-3.416-8.036-9.596-12.745-17.003-12.931c-4.419-0.112-8.469-2.598-10.569-6.487c-3.506-6.495-10.516-9.85-19.281-9.269      c-6.485,2.75-10.888,7.333-12.419,12.941c-1.38,5.057-0.305,10.575,2.876,14.763c3.18,4.185,3.464,9.75,0.725,14.181      L343.867,219.874z"/>
</g>
<g>
<path d="M247.623,474.049c-13.626,0.001-26.988-3.461-38.91-10.766c-17.012-10.424-29.103-27.592-34.045-48.341      c-6.074-25.503-0.945-54.066,14.07-78.367c11.173-18.082,26.684-32.265,44.857-41.015c28.46-13.704,52.114-34.884,68.405-61.247      l11.424-18.489c3.609-5.84,11.309-7.675,17.163-4.088l48.553,29.75c2.855,1.749,4.854,4.506,5.63,7.763s0.232,6.619-1.527,9.467      l-11.404,18.455c-16.287,26.359-24.608,56.924-24.064,88.389c0.348,20.108-5.376,40.298-16.552,58.385      C311.53,455.813,278.89,474.047,247.623,474.049z M324.874,225.828l-10.114,16.37c-17.799,28.803-43.614,51.929-74.659,66.878      c-15.589,7.505-28.938,19.741-38.604,35.384l0,0c-12.935,20.933-17.395,45.355-12.239,67.007      c4.011,16.842,13.703,30.701,27.29,39.025c9.525,5.837,20.231,8.603,31.198,8.604c26.166,0.002,53.843-15.732,70.714-43.036      c9.662-15.638,14.611-33.011,14.313-50.24c-0.594-34.344,8.502-67.725,26.303-96.533l10.085-16.321L324.874,225.828z       M195.118,340.518h0.01H195.118z"/>
</g>
</g>
</g>
</g>
</svg>