<?xml version="1.0" encoding="iso-8859-1"?>
<!-- Uploaded to: SVG Repo, www.svgrepo.com, Generator: SVG Repo Mixer Tools -->
<svg height="800px" width="800px" version="1.1" id="Layer_1" xmlns="http://www.w3.org/2000/svg" xmlns:xlink="http://www.w3.org/1999/xlink" 
	 viewBox="0 0 512 512" xml:space="preserve">
<circle style="fill:#386895;" cx="256" cy="256" r="256"/>
<path style="fill:#273B7A;" d="M143.039,321.434l181.269,181.334c88.066-24.324,157.093-94.511,179.746-183.258l-95.477-95.477
	l-36.712-1.077l-25.441,25.443L238.061,140.035l-11.447,29.2l-70.528-70.11l-9.764,10.343l50.278,50.278l-57.523,43.18
	l55.624,55.563h-35.812L143.039,321.434z"/>
<path style="fill:#B54324;" d="M179.91,141.221l-23.054-41.05c-1.527-2.72-5.034-3.589-7.656-1.895l-16.763,10.835
	c-2.927,1.893-3.329,6.018-0.819,8.439l36.928,35.619c2.584,2.493,6.835,1.824,8.528-1.343l2.889-5.403
	C180.836,144.794,180.815,142.832,179.91,141.221z"/>
<g>
	<path style="fill:#FF7F4F;" d="M164.368,124.813c0,0,53.655-14.331,78.982,20.995s16.996,70.984,16.996,70.984h-20.663
		L164.368,124.813z"/>
	<path style="fill:#FF7F4F;" d="M343.328,238.454c0,0,14.664-33.992,45.323-28.327s26.327,43.991,26.327,43.991l-23.661,7.332
		c0,0-0.333-30.992-14.664-30.66s-24.328,16.331-24.328,16.331L343.328,238.454z"/>
</g>
<polygon style="fill:#A6A8AA;" points="321,311.105 318.333,388.42 305.004,388.42 308.336,301.439 "/>
<g>
	<path style="fill:#D0D1D3;" d="M185.029,252.45l-39.324,2.667c0,0-4.999-0.438-4.332,9.113c0.667,9.55,1.667,57.206,1.667,57.206
		l15.663-1.667l1.667-42.991l26.327-0.333L185.029,252.45z"/>
	<path style="fill:#D0D1D3;" d="M207.358,120.146v23.995l14.331,11.331C221.687,155.472,231.019,130.477,207.358,120.146z"/>
</g>
<path style="fill:#FFFFFF;" d="M341.995,233.787c-13.664-9.331-73.983,2.667-86.981-1.333
	c-12.997-3.999-12.997-33.659-12.997-33.659c-1-71.651-63.319-57.654-63.319-57.654c-3,5.999-37.659,42.658-42.991,46.323
	s-1,14.996,10.997,20.663c11.997,5.665,15.663-8.999,28.994-10.664c13.331-1.667,16.663-13.664,16.663-13.664l3.999,8.999
	c0,0-31.66,55.987-6.999,94.979c4.668,7.38,11.067,12.19,18.375,15.143l5.275,85.502h14.007v-81.596
	c28.572,1.341,59.987-12.716,59.987-12.716c15.331,25.995,49.323,20.995,49.323,20.995v73.318h14.996c0-14.664,0-75.65,0-75.65
	C366.656,245.786,355.659,243.119,341.995,233.787z"/>
<path style="fill:#D0D1D3;" d="M341.995,233.787c-13.534-9.244-72.813,2.431-86.569-1.233v71.532
	c17.698-3.772,31.58-9.978,31.58-9.978c15.331,25.995,49.323,20.995,49.323,20.995v73.318h14.996c0-14.664,0-75.65,0-75.65
	C366.656,245.784,355.659,243.119,341.995,233.787z"/>
<circle style="fill:#272525;" cx="173.201" cy="167.977" r="2.832"/>
<path style="fill:#C92F00;" d="M340.68,233.031c-15.822-7.887-73.045,3.306-85.666-0.578c-2.336-0.719-4.248-2.276-5.818-4.332
	c-0.521,2.777-0.805,5.637-0.805,8.564c0,25.528,20.695,46.223,46.223,46.223c25.529,0,46.223-20.695,46.223-46.223
	C340.837,235.456,340.775,234.239,340.68,233.031z"/>
<path style="fill:#930000;" d="M340.68,233.031c-8.228-4.101-27.651-3.043-46.178-1.627v51.503c0.038,0,0.074,0.002,0.112,0.002
	c25.529,0,46.223-20.695,46.223-46.223C340.837,235.456,340.775,234.239,340.68,233.031z"/>
<path style="fill:#EAA22F;" d="M317.921,236.687c0-2.262-0.338-4.442-0.94-6.511c-14.662,0.264-32.258,2.208-45.366,2.889
	c-0.184,1.183-0.31,2.388-0.31,3.624c0,12.872,10.435,23.307,23.307,23.307C307.486,259.994,317.921,249.559,317.921,236.687z"/>
<path style="fill:#E09112;" d="M316.981,230.176c-7.087,0.128-14.86,0.648-22.48,1.229v28.586c0.038,0,0.074,0.005,0.112,0.005
	c12.872,0,23.307-10.435,23.307-23.307C317.921,234.425,317.583,232.245,316.981,230.176z"/>
</svg>