<?xml version="1.0" encoding="iso-8859-1"?>
<!-- Uploaded to: SVG Repo, www.svgrepo.com, Generator: SVG Repo Mixer Tools -->
<svg height="800px" width="800px" version="1.1" id="Layer_1" xmlns="http://www.w3.org/2000/svg" xmlns:xlink="http://www.w3.org/1999/xlink" 
	 viewBox="0 0 512 512" xml:space="preserve">
<circle style="fill:#FEE187;" cx="256" cy="256" r="256"/>
<path style="fill:#FFC61B;" d="M306.94,506.925c93.811-18.942,169.032-89.171,195.15-180.171L306.045,130.71l-40.851,3.755v6.608
	l-11.779-11.779l-54.303,44.401l66.084,66.082v113.336l3.801,3.801l-85.107,26.957L306.94,506.925z"/>
<circle style="fill:#D0D1D3;" cx="256" cy="317.199" r="89.643"/>
<path style="fill:#A6A8AA;" d="M256,227.556c-0.193,0-0.381,0.014-0.574,0.014v179.257c0.193,0,0.381,0.014,0.574,0.014
	c49.509,0,89.643-40.134,89.643-89.643S305.507,227.556,256,227.556z"/>
<path style="fill:#59595B;" d="M256,415.461c-54.182,0-98.263-44.08-98.263-98.263s44.08-98.263,98.263-98.263
	s98.263,44.08,98.263,98.263S310.181,415.461,256,415.461z M256,236.175c-44.677,0-81.024,36.347-81.024,81.024
	s36.347,81.024,81.024,81.024s81.024-36.347,81.024-81.024S300.677,236.175,256,236.175z"/>
<path style="fill:#272525;" d="M256,218.936c-0.193,0-0.381,0.014-0.574,0.014v17.239c0.193-0.002,0.381-0.014,0.574-0.014
	c44.677,0,81.024,36.347,81.024,81.024S300.677,398.222,256,398.222c-0.193,0-0.381-0.014-0.574-0.014v17.239
	c0.193,0,0.381,0.014,0.574,0.014c54.182,0,98.263-44.08,98.263-98.263S310.181,218.936,256,218.936z"/>
<circle style="fill:#FF5419;" cx="256" cy="317.199" r="20.687"/>
<path style="fill:#C92F00;" d="M256,296.512c-0.193,0-0.381,0.024-0.574,0.029v41.315c0.193,0.005,0.381,0.029,0.574,0.029
	c11.424,0,20.687-9.263,20.687-20.687S267.424,296.512,256,296.512z"/>
<path style="fill:#272525;" d="M239.909,352.682h-28.444c-2.857,0-5.172-2.315-5.172-5.172s2.315-5.172,5.172-5.172h25.459
	l14.6-25.283c1.427-2.476,4.589-3.324,7.065-1.893c2.474,1.427,3.322,4.591,1.893,7.065l-16.091,27.869
	C243.464,351.697,241.755,352.682,239.909,352.682z"/>
<path style="fill:#C92F00;" d="M256,325.818c-5.711,0-10.343-4.632-10.343-10.343V144.808c0-5.711,4.632-10.343,10.343-10.343
	c5.711,0,10.343,4.632,10.343,10.343v170.667C266.343,321.186,261.711,325.818,256,325.818z"/>
<path style="fill:#930000;" d="M256,134.465c-0.193,0-0.383,0.019-0.574,0.029v191.295c0.191,0.01,0.381,0.029,0.574,0.029
	c5.711,0,10.343-4.632,10.343-10.343V144.808C266.343,139.097,261.711,134.465,256,134.465z"/>
<path style="fill:#386895;" d="M208.593,177.488c-7.616,0-13.791-6.175-13.791-13.791c0-23.247,18.915-42.162,42.162-42.162h56.101
	c7.616,0,13.791,6.175,13.791,13.791c0,7.616-6.175,13.791-13.791,13.791h-56.101c-8.039,0-14.579,6.54-14.579,14.579
	C222.384,171.313,216.207,177.488,208.593,177.488z"/>
<path style="fill:#273B7A;" d="M293.064,121.535h-37.638v27.582h37.638c7.616,0,13.791-6.175,13.791-13.791
	C306.855,127.71,300.678,121.535,293.064,121.535z"/>
</svg>